<svg width="32" height="32" viewBox="0 0 32 32" fill="none" xmlns="http://www.w3.org/2000/svg">
<path d="M22.902 11.5516C24.9598 13.0278 27.4807 13.8964 30.2034 13.8964V8.63847C29.6881 8.63858 29.1742 8.58466 28.67 8.47747V12.6162C25.9476 12.6162 23.427 11.7476 21.3686 10.2715V21.0015C21.3686 26.3692 17.0328 30.7202 11.6845 30.7202C9.68892 30.7202 7.83412 30.1148 6.29333 29.0764C8.05188 30.8809 10.5043 32.0003 13.2175 32.0003C18.5661 32.0003 22.9022 27.6492 22.9022 22.2814V11.5516H22.902ZM24.7935 6.24698C23.7419 5.09396 23.0514 3.60389 22.902 1.95656V1.28027H21.4489C21.8147 3.37403 23.0622 5.16282 24.7935 6.24698ZM9.67612 24.9574C9.08855 24.1842 8.77103 23.2385 8.77245 22.266C8.77245 19.811 10.7557 17.8205 13.2024 17.8205C13.6584 17.8204 14.1116 17.8904 14.5462 18.0288V12.6534C14.0384 12.5835 13.5258 12.5539 13.0135 12.5647V16.7487C12.5786 16.6104 12.1252 16.5401 11.6691 16.5405C9.22232 16.5405 7.23922 18.5308 7.23922 20.9861C7.23922 22.7222 8.2305 24.2252 9.67612 24.9574Z" fill="#FF004F"/>
<path d="M21.3686 10.2714C23.427 11.7475 25.9475 12.6161 28.67 12.6161V8.47736C27.1503 8.15251 25.805 7.35553 24.7935 6.24698C23.0621 5.16271 21.8147 3.37392 21.4489 1.28027H17.6321V22.2811C17.6235 24.7294 15.6437 26.7118 13.2022 26.7118C11.7634 26.7118 10.4853 26.0236 9.67577 24.9574C8.23025 24.2252 7.23897 22.7221 7.23897 20.9862C7.23897 18.5311 9.22207 16.5406 11.6688 16.5406C12.1376 16.5406 12.5894 16.6139 13.0133 16.7488V12.5648C7.75895 12.6738 3.5332 16.9823 3.5332 22.2812C3.5332 24.9264 4.58551 27.3244 6.29342 29.0765C7.8342 30.1148 9.689 30.7203 11.6846 30.7203C17.0329 30.7203 21.3687 26.3691 21.3687 21.0015V10.2714H21.3686Z" fill="black"/>
<path d="M28.67 8.47707V7.35798C27.2997 7.36007 25.9562 6.97492 24.7935 6.24658C25.8228 7.37742 27.1781 8.15716 28.67 8.47707ZM21.4489 1.27998C21.414 1.07988 21.3872 0.878468 21.3686 0.676285V0H16.0987V21.0011C16.0903 23.449 14.1106 25.4314 11.6688 25.4314C10.952 25.4314 10.2752 25.2606 9.6758 24.9572C10.4853 26.0233 11.7635 26.7114 13.2022 26.7114C15.6435 26.7114 17.6236 24.7292 17.6321 22.281V1.27998H21.4489ZM13.0135 12.5645V11.3732C12.5732 11.3128 12.1292 11.2825 11.6847 11.2827C6.33589 11.2826 2 15.6339 2 21.0011C2 24.366 3.70408 27.3316 6.29356 29.076C4.58565 27.324 3.53334 24.9259 3.53334 22.2808C3.53334 16.982 7.75898 12.6735 13.0135 12.5645Z" fill="#00F2EA"/>
</svg>
