<svg width="230" height="230" viewBox="0 0 230 230" fill="none" xmlns="http://www.w3.org/2000/svg">
<rect x="0.5" y="0.5" width="229" height="229" fill="#FFE743" stroke="#BDBDBD"/>
<g clip-path="url(#clip0_1892_8522)">
<path d="M93.3755 139.505C93.1467 139.355 92.9125 139.244 92.6809 139.174C92.4466 139.104 92.2636 139.059 92.1344 139.032C91.6928 138.919 91.3374 138.827 91.0655 138.754C90.7936 138.682 90.5782 138.609 90.4248 138.536C90.2713 138.464 90.1663 138.386 90.1151 138.299C90.0613 138.213 90.0371 138.103 90.0371 137.963C90.0371 137.812 90.0694 137.685 90.1366 137.589C90.2012 137.489 90.2874 137.408 90.387 137.341C90.4894 137.276 90.6025 137.228 90.729 137.203C90.8528 137.177 90.9793 137.163 91.1031 137.163C91.2944 137.163 91.4694 137.179 91.6309 137.212C91.7924 137.244 91.9351 137.301 92.0589 137.379C92.1828 137.457 92.2851 137.567 92.3605 137.704C92.4359 137.842 92.4789 138.017 92.4925 138.227H93.9921C93.9921 137.82 93.914 137.473 93.7605 137.185C93.6071 136.899 93.3971 136.662 93.1332 136.479C92.8693 136.296 92.5705 136.162 92.2313 136.081C91.8921 135.997 91.5394 135.957 91.1706 135.957C90.8555 135.957 90.5406 136 90.2228 136.086C89.9077 136.172 89.6251 136.304 89.3748 136.482C89.1243 136.66 88.9225 136.881 88.7689 137.147C88.6154 137.413 88.5374 137.729 88.5374 138.089C88.5374 138.412 88.5994 138.687 88.7205 138.913C88.8417 139.139 89.0005 139.33 89.1997 139.481C89.3962 139.632 89.6197 139.756 89.8701 139.85C90.1206 139.944 90.3763 140.025 90.6401 140.092C90.8958 140.165 91.149 140.23 91.3993 140.289C91.6498 140.348 91.8732 140.418 92.0698 140.496C92.2663 140.574 92.4252 140.674 92.549 140.792C92.6702 140.911 92.7321 141.064 92.7321 141.256C92.7321 141.433 92.6863 141.579 92.5947 141.694C92.5032 141.81 92.3874 141.899 92.2502 141.966C92.1128 142.031 91.9647 142.077 91.8059 142.101C91.6471 142.125 91.499 142.136 91.3617 142.136C91.157 142.136 90.9606 142.112 90.7693 142.063C90.5782 142.015 90.4112 141.939 90.2713 141.837C90.1313 141.735 90.0155 141.603 89.932 141.439C89.8458 141.274 89.8028 141.072 89.8028 140.836H88.3032C88.2978 141.269 88.3758 141.643 88.5401 141.961C88.7043 142.276 88.9252 142.537 89.2051 142.742C89.4851 142.946 89.8055 143.094 90.1716 143.191C90.5379 143.286 90.912 143.334 91.3024 143.334C91.7817 143.334 92.2043 143.277 92.5705 143.167C92.9367 143.054 93.2409 142.901 93.4886 142.699C93.7363 142.497 93.9221 142.26 94.046 141.982C94.1698 141.705 94.2344 141.406 94.2344 141.083C94.2344 140.687 94.1509 140.364 93.984 140.111C93.8171 139.858 93.6178 139.656 93.3863 139.505H93.3755Z" fill="white"/>
<path d="M104.522 137.432H106.635V143.175H108.184V137.432H110.294V136.129H104.522V137.432Z" fill="white"/>
<path d="M125.468 140.509C125.468 141.034 125.363 141.422 125.153 141.67C124.943 141.917 124.561 142.039 124.009 142.039C123.694 142.039 123.441 141.993 123.255 141.904C123.067 141.815 122.921 141.699 122.816 141.559C122.711 141.417 122.641 141.255 122.609 141.072C122.577 140.889 122.561 140.7 122.561 140.509V136.129H121.012V140.509C121.012 141.47 121.274 142.181 121.796 142.639C122.318 143.099 123.056 143.331 124.012 143.331C124.967 143.331 125.689 143.099 126.222 142.636C126.755 142.173 127.022 141.465 127.022 140.509V136.129H125.474V140.509H125.468Z" fill="white"/>
<path d="M143.607 136.999C143.321 136.71 142.982 136.492 142.592 136.347C142.201 136.202 141.779 136.129 141.324 136.129H138.284V143.172H141.324C141.862 143.172 142.331 143.08 142.729 142.9C143.127 142.72 143.459 142.472 143.725 142.154C143.992 141.839 144.191 141.462 144.323 141.029C144.455 140.595 144.519 140.122 144.519 139.607C144.519 139.023 144.439 138.512 144.277 138.078C144.116 137.645 143.892 137.281 143.607 136.993V136.999ZM142.823 140.746C142.724 141.015 142.594 141.234 142.428 141.403C142.263 141.57 142.075 141.691 141.865 141.764C141.655 141.837 141.437 141.872 141.213 141.872H139.832V137.432H140.936C141.318 137.432 141.639 137.486 141.897 137.594C142.156 137.701 142.366 137.857 142.524 138.062C142.683 138.267 142.796 138.512 142.864 138.797C142.934 139.082 142.966 139.403 142.966 139.758C142.966 140.146 142.917 140.474 142.818 140.744L142.823 140.746Z" fill="white"/>
<path d="M157.076 136.129H155.528V143.172H157.076V136.129Z" fill="white"/>
<path d="M174.078 137.039C173.782 136.703 173.421 136.441 172.993 136.25C172.565 136.059 172.078 135.965 171.534 135.965C170.99 135.965 170.508 136.059 170.078 136.25C169.647 136.441 169.283 136.705 168.987 137.039C168.691 137.376 168.465 137.769 168.306 138.218C168.147 138.668 168.069 139.158 168.069 139.683C168.069 140.208 168.147 140.674 168.306 141.118C168.465 141.562 168.691 141.947 168.987 142.278C169.283 142.61 169.647 142.865 170.078 143.054C170.508 143.242 170.993 143.334 171.534 143.334C172.075 143.334 172.565 143.24 172.993 143.054C173.421 142.865 173.782 142.61 174.078 142.278C174.375 141.95 174.601 141.562 174.76 141.118C174.918 140.674 174.996 140.194 174.996 139.683C174.996 139.171 174.918 138.668 174.76 138.218C174.601 137.769 174.375 137.376 174.078 137.039ZM173.343 140.547C173.273 140.827 173.163 141.078 173.012 141.301C172.861 141.525 172.665 141.705 172.42 141.839C172.175 141.974 171.881 142.041 171.531 142.041C171.181 142.041 170.885 141.974 170.643 141.839C170.401 141.705 170.201 141.525 170.051 141.301C169.9 141.078 169.79 140.827 169.719 140.547C169.65 140.267 169.617 139.979 169.617 139.683C169.617 139.387 169.652 139.075 169.719 138.786C169.79 138.498 169.9 138.24 170.051 138.011C170.201 137.785 170.398 137.605 170.643 137.467C170.885 137.333 171.181 137.265 171.531 137.265C171.881 137.265 172.175 137.333 172.42 137.467C172.665 137.602 172.861 137.782 173.012 138.011C173.163 138.237 173.273 138.496 173.343 138.786C173.413 139.077 173.446 139.376 173.446 139.683C173.446 139.99 173.411 140.267 173.343 140.547Z" fill="white"/>
<path d="M68.6145 98.9775C61.1082 98.9775 55 105.083 55 112.592C55 120.101 61.1082 126.207 68.6145 126.207C76.1209 126.207 82.229 120.098 82.229 112.592C82.229 105.086 76.1209 98.9775 68.6145 98.9775ZM68.6145 121.288C63.82 121.288 59.9188 117.387 59.9188 112.592C59.9188 107.798 63.82 103.896 68.6145 103.896C73.4091 103.896 77.3103 107.798 77.3103 112.592C77.3103 117.387 73.4091 121.288 68.6145 121.288Z" fill="#00F222"/>
<path d="M73.6364 128.564H63.5927C58.8563 128.564 55 132.418 55 137.157C55 141.896 58.8536 145.75 63.5927 145.75H73.6391C78.3755 145.75 82.2317 141.896 82.2317 137.157C82.2317 132.418 78.378 128.564 73.6391 128.564H73.6364ZM73.6364 140.831H63.5927C61.5681 140.831 59.9188 139.182 59.9188 137.157C59.9188 135.133 61.5681 133.483 63.5927 133.483H73.6391C75.6663 133.483 77.313 135.133 77.313 137.157C77.313 139.182 75.6636 140.831 73.6391 140.831H73.6364Z" fill="#00F222"/>
<path d="M171.085 126.18C171.523 126.503 172.034 126.656 172.538 126.656C173.294 126.656 174.04 126.307 174.523 125.652C175.327 124.557 175.092 123.016 173.997 122.215L160.893 112.597L173.767 103.199C174.864 102.398 175.105 100.859 174.304 99.7624C173.503 98.6656 171.965 98.4251 170.868 99.2259L159.188 107.753V86.5391C159.188 85.1806 158.089 84.0811 156.73 84.0811C155.372 84.0811 154.272 85.1806 154.272 86.5391V123.746C154.272 125.104 155.372 126.204 156.73 126.204C158.089 126.204 159.188 125.104 159.188 123.746V117.445L171.087 126.177L171.085 126.18Z" fill="#00F222"/>
<path d="M101.82 99.2048C94.3767 99.2048 88.3214 105.26 88.3214 112.703C88.3214 120.146 94.3767 126.201 101.82 126.201C105.113 126.201 108.285 125.001 110.751 122.823C111.768 121.925 111.866 120.371 110.967 119.353C110.069 118.336 108.515 118.238 107.497 119.136C105.93 120.521 103.913 121.283 101.82 121.283C97.0886 121.283 93.2376 117.434 93.2376 112.7C93.2376 107.967 97.0859 104.121 101.82 104.121C105.697 104.121 108.983 106.706 110.042 110.242H101.82C100.461 110.242 99.3616 111.342 99.3616 112.7C99.3616 114.059 100.461 115.158 101.82 115.158H112.86C114.218 115.158 115.318 114.059 115.318 112.7C115.318 105.258 109.263 99.2021 101.82 99.2021V99.2048Z" fill="#00F222"/>
<path d="M134.795 99.2048C127.352 99.2048 121.297 105.26 121.297 112.703C121.297 120.146 127.352 126.201 134.795 126.201C138.088 126.201 141.26 125.001 143.726 122.823C144.743 121.925 144.841 120.371 143.943 119.353C143.044 118.336 141.49 118.238 140.472 119.136C138.905 120.521 136.888 121.283 134.795 121.283C130.064 121.283 126.213 117.434 126.213 112.7C126.213 107.967 130.061 104.121 134.795 104.121C138.672 104.121 141.958 106.706 143.018 110.242H134.795C133.436 110.242 132.337 111.342 132.337 112.7C132.337 114.059 133.436 115.158 134.795 115.158H145.835C147.194 115.158 148.293 114.059 148.293 112.7C148.293 105.258 142.238 99.2021 134.795 99.2021V99.2048Z" fill="#00F222"/>
</g>
<defs>
<clipPath id="clip0_1892_8522">
<rect width="120" height="63.8298" fill="white" transform="translate(55 83)"/>
</clipPath>
</defs>
</svg>
