<svg width="230" height="230" viewBox="0 0 230 230" fill="none" xmlns="http://www.w3.org/2000/svg">
<rect x="0.5" y="0.5" width="229" height="229" fill="#FFE743" stroke="#BDBDBD"/>
<g clip-path="url(#clip0_1892_8507)">
<path d="M134.249 126.664H128.612C128.248 126.664 127.9 126.806 127.643 127.059C127.385 127.312 127.241 127.655 127.241 128.013V147.798C127.241 148.156 127.385 148.499 127.643 148.752C127.9 149.005 128.248 149.147 128.612 149.147H134.249C142.656 149.147 146.891 144.65 146.891 137.952C146.891 131.254 142.656 126.664 134.249 126.664V126.664ZM136.026 142.304H134.559C134.316 142.304 134.084 142.209 133.912 142.041C133.741 141.872 133.645 141.643 133.645 141.405V134.309C133.645 134.071 133.741 133.842 133.912 133.673C134.084 133.505 134.316 133.41 134.559 133.41H135.93C137.857 133.41 139.129 134.996 139.129 137.952C139.129 140.907 137.966 142.307 136.039 142.307L136.026 142.304ZM83.3711 149.147H87.4844C87.848 149.147 88.1968 149.005 88.4539 148.752C88.711 148.499 88.8555 148.156 88.8555 147.798V141.502L90.9172 145.694C91.0315 145.921 91.2083 146.112 91.4274 146.244C91.6465 146.377 91.8991 146.446 92.1562 146.444H92.2121C92.4605 146.445 92.7047 146.38 92.9184 146.256C93.1322 146.131 93.3075 145.952 93.4258 145.737L95.7109 141.505V147.801C95.7109 148.158 95.8554 148.501 96.1125 148.755C96.3696 149.008 96.7184 149.15 97.082 149.15H101.195C101.375 149.15 101.554 149.115 101.72 149.047C101.886 148.979 102.037 148.88 102.165 148.755C102.292 148.629 102.393 148.481 102.462 148.317C102.531 148.153 102.566 147.978 102.566 147.801V128.013C102.566 127.836 102.531 127.661 102.462 127.497C102.393 127.333 102.292 127.184 102.165 127.059C102.037 126.934 101.886 126.835 101.72 126.767C101.554 126.699 101.375 126.664 101.195 126.664H96.7494C96.5004 126.664 96.2561 126.731 96.0427 126.857C95.8293 126.984 95.6549 127.165 95.5383 127.381L92.0547 133.859L88.5686 127.384C88.4519 127.167 88.2775 126.986 88.0641 126.86C87.8507 126.733 87.6064 126.667 87.3574 126.667H83.3711C83.0075 126.667 82.6587 126.809 82.4016 127.062C82.1445 127.315 82 127.658 82 128.016V147.801C82.0007 148.158 82.1454 148.5 82.4025 148.753C82.6595 149.005 83.0079 149.147 83.3711 149.147V149.147ZM118.562 146.979L118.908 148.17C118.989 148.452 119.162 148.7 119.4 148.877C119.638 149.054 119.928 149.149 120.226 149.15H124.034C124.248 149.15 124.458 149.101 124.649 149.007C124.84 148.913 125.006 148.776 125.134 148.608C125.261 148.439 125.347 148.243 125.384 148.037C125.421 147.83 125.408 147.617 125.347 147.416C123.978 142.944 120.365 131.131 119.314 127.678C119.229 127.401 119.056 127.159 118.82 126.986C118.584 126.814 118.298 126.721 118.004 126.722H111.809C111.514 126.722 111.227 126.815 110.991 126.988C110.755 127.16 110.581 127.403 110.496 127.681L104.466 147.418C104.402 147.62 104.387 147.834 104.423 148.043C104.459 148.252 104.544 148.449 104.672 148.62C104.8 148.79 104.967 148.928 105.159 149.023C105.351 149.118 105.563 149.168 105.778 149.167H109.754C110.052 149.167 110.342 149.071 110.58 148.895C110.818 148.718 110.991 148.47 111.072 148.188L111.418 146.996C111.499 146.714 111.672 146.466 111.91 146.289C112.148 146.113 112.437 146.017 112.735 146.017H117.245C117.54 146.016 117.828 146.109 118.066 146.282C118.303 146.456 118.478 146.7 118.562 146.979V146.979ZM113.073 140.793L114.901 134.497L116.729 140.793H113.073V140.793ZM88.8555 153.19H83.3711C83.0075 153.19 82.6587 153.332 82.4016 153.585C82.1445 153.838 82 154.181 82 154.539V168.929C82 169.287 82.1445 169.63 82.4016 169.883C82.6587 170.136 83.0075 170.279 83.3711 170.279H89.3125C95.6043 170.279 98.4531 166.738 98.4531 161.734C98.4531 156.73 95.1447 153.19 88.8555 153.19ZM89.3125 164.88H88.3984C88.2772 164.88 88.161 164.832 88.0753 164.748C87.9896 164.664 87.9414 164.549 87.9414 164.43V159.033C87.9414 158.914 87.9896 158.8 88.0753 158.715C88.161 158.631 88.2772 158.584 88.3984 158.584H89.3125C91.0898 158.584 92.0547 159.521 92.0547 161.732C92.0547 163.943 91.0848 164.887 89.3125 164.887V164.88ZM144.075 160.767C143.486 160.379 142.223 159.943 140.287 159.458L139.329 159.226C139.262 159.211 139.164 159.185 139.035 159.148C137.578 158.787 136.849 158.336 136.849 157.794C136.838 157.63 136.871 157.467 136.944 157.319C137.017 157.171 137.128 157.045 137.265 156.952C137.652 156.741 138.093 156.645 138.535 156.675C139.057 156.644 139.577 156.767 140.028 157.03C140.378 157.267 141 157.662 141.081 158.144H144.573C144.71 158.144 144.846 158.114 144.971 158.056C145.095 157.997 145.204 157.912 145.29 157.806C145.375 157.7 145.436 157.576 145.466 157.444C145.496 157.311 145.495 157.174 145.464 157.042C145.218 155.947 144.579 154.977 143.664 154.309C142.197 153.269 140.429 152.72 138.621 152.745C136.783 152.714 134.986 153.284 133.512 154.366C132.271 155.291 131.481 156.388 131.481 158.006C131.52 158.819 131.738 159.614 132.121 160.335C132.457 160.983 132.951 161.539 133.558 161.954C134.056 162.253 134.588 162.493 135.143 162.669C135.869 162.923 136.844 163.206 138.068 163.518L138.756 163.685C140.25 164.055 140.998 164.536 141 165.127C141.002 165.307 140.952 165.484 140.858 165.638C140.763 165.791 140.627 165.917 140.464 165.999C140.012 166.232 139.504 166.342 138.994 166.316C138.25 166.316 137.689 166.187 137.313 165.929C136.938 165.679 136.651 165.032 136.509 164.43H132.548C132.412 164.43 132.277 164.459 132.155 164.517C132.032 164.574 131.923 164.657 131.837 164.761C131.751 164.864 131.69 164.986 131.657 165.115C131.625 165.245 131.622 165.381 131.649 165.512C131.926 166.826 132.51 167.97 133.528 168.735C134.818 169.704 136.417 170.274 138.619 170.274C141.008 170.274 142.988 169.704 144.27 168.735C145.553 167.765 146.111 166.236 146.111 164.427C146.111 163.59 146.022 163.013 145.685 162.399C145.292 161.733 144.739 161.173 144.075 160.767V160.767ZM129.211 153.19H125.324C125.003 153.19 124.693 153.301 124.446 153.503C124.2 153.705 124.033 153.986 123.976 154.296L122.353 163.081L120.731 154.296C120.673 153.986 120.507 153.705 120.26 153.503C120.014 153.301 119.703 153.19 119.383 153.19H115.493C115.28 153.189 115.07 153.238 114.88 153.331C114.69 153.425 114.524 153.561 114.396 153.728C114.269 153.895 114.182 154.089 114.144 154.295C114.105 154.501 114.116 154.712 114.175 154.913L118.408 169.302C118.49 169.583 118.663 169.83 118.901 170.006C119.139 170.181 119.428 170.276 119.725 170.276H124.976C125.273 170.276 125.563 170.181 125.8 170.006C126.038 169.83 126.211 169.583 126.294 169.302L130.527 154.913C130.586 154.713 130.596 154.501 130.558 154.296C130.52 154.09 130.433 153.896 130.306 153.729C130.178 153.562 130.013 153.426 129.823 153.332C129.633 153.239 129.424 153.19 129.211 153.19V153.19ZM111.247 153.19H101.193C101.013 153.19 100.834 153.224 100.668 153.292C100.502 153.36 100.351 153.459 100.223 153.585C100.096 153.71 99.9949 153.859 99.926 154.022C99.8571 154.186 99.8217 154.362 99.8217 154.539V168.929C99.8217 169.287 99.9661 169.63 100.223 169.883C100.48 170.136 100.829 170.279 101.193 170.279H111.247C111.611 170.279 111.96 170.136 112.217 169.883C112.474 169.63 112.619 169.287 112.619 168.929V166.681C112.619 166.442 112.522 166.214 112.351 166.045C112.179 165.876 111.947 165.782 111.704 165.782H105.763C105.642 165.782 105.526 165.734 105.44 165.65C105.354 165.565 105.306 165.451 105.306 165.332V164.432C105.306 164.313 105.354 164.199 105.44 164.114C105.526 164.03 105.642 163.983 105.763 163.983H110.333C110.453 163.983 110.572 163.959 110.683 163.914C110.794 163.869 110.895 163.803 110.98 163.719C111.065 163.636 111.132 163.537 111.178 163.427C111.224 163.318 111.247 163.201 111.247 163.083V160.385C111.247 160.146 111.151 159.918 110.98 159.749C110.808 159.58 110.576 159.486 110.333 159.486H105.763C105.642 159.486 105.526 159.438 105.44 159.354C105.354 159.269 105.306 159.155 105.306 159.036V158.136C105.306 158.017 105.354 157.903 105.44 157.818C105.526 157.734 105.642 157.687 105.763 157.687H111.707C111.827 157.687 111.946 157.663 112.057 157.618C112.168 157.573 112.268 157.507 112.353 157.423C112.438 157.34 112.506 157.241 112.552 157.131C112.597 157.022 112.621 156.905 112.621 156.787V154.539C112.621 154.361 112.586 154.186 112.516 154.022C112.447 153.858 112.346 153.709 112.219 153.584C112.091 153.459 111.94 153.359 111.773 153.292C111.606 153.224 111.428 153.189 111.247 153.19V153.19Z" fill="white"/>
<path fill-rule="evenodd" clip-rule="evenodd" d="M142.234 59.3348L114.437 71.8268L86.6389 59.3348C84.6889 58.293 82 59.7895 82 62.4653V114.624C82 116.623 83.2162 118.252 84.8666 118.302C84.9425 118.311 85.0192 118.311 85.0951 118.302H85.2602L103.478 116.441L100.027 111.601C98.5191 109.53 100.347 107.731 102.282 108.431C102.67 108.571 103.092 108.386 103.47 108.483L98.9 93.313C98.8822 93.2605 98.867 93.2081 98.8517 93.1556L98.8162 93.0407V93.0057C98.6918 92.3899 98.7984 91.7505 99.1163 91.2061C99.4342 90.6617 99.9418 90.2492 100.545 90.0449C101.149 89.8406 101.807 89.8584 102.398 90.095C102.989 90.3316 103.473 90.771 103.76 91.3318V91.3543C103.803 91.4392 109.003 104.064 109.003 104.064C109.124 103.424 109.473 102.847 109.988 102.438C110.502 102.028 111.148 101.813 111.809 101.83C112.471 101.847 113.104 102.096 113.596 102.531C114.088 102.967 114.406 103.561 114.492 104.206C114.584 103.542 114.919 102.933 115.435 102.495C115.951 102.057 116.612 101.82 117.293 101.828C118.651 101.828 119.705 103.009 119.941 104.283L123.031 95.714C123.245 95.1405 123.657 94.6591 124.195 94.3538C124.732 94.0484 125.362 93.9385 125.974 94.0432C126.585 94.1479 127.14 94.4605 127.542 94.9266C127.943 95.3926 128.166 95.9825 128.17 96.5934V96.6734L125.418 116.423L143.615 118.284H143.78C143.856 118.294 143.933 118.294 144.009 118.284C145.659 118.235 146.784 116.616 146.784 114.614V62.4528C146.782 59.7795 144.184 58.293 142.234 59.3348Z" fill="#F01716"/>
</g>
<defs>
<clipPath id="clip0_1892_8507">
<rect width="65" height="111.429" fill="white" transform="translate(82 59)"/>
</clipPath>
</defs>
</svg>
