<svg width="230" height="230" viewBox="0 0 230 230" fill="none" xmlns="http://www.w3.org/2000/svg">
<rect x="0.5" y="0.5" width="229" height="229" fill="#FFE743" stroke="#BDBDBD"/>
<g clip-path="url(#clip0_1892_8493)">
<path d="M86.2625 105.593L70.8533 95.7421C63.3679 90.9571 53.9735 90.9571 46.4878 95.7421L31.0788 105.593C27.4212 107.931 25.1873 112.108 25.1873 116.613V131.602C25.1873 135.396 28.1107 138.469 31.7159 138.469H85.628C89.2333 138.469 92.1566 135.394 92.1566 131.602V116.613C92.1539 112.108 89.9201 107.931 86.2625 105.593Z" fill="#BE922D"/>
<path d="M86.2625 104.775L70.8533 95.4118C63.3679 90.8627 53.9735 90.8627 46.4878 95.4118L31.0788 104.775C27.4212 106.998 25.1873 110.968 25.1873 115.249V129.497C25.1873 133.102 28.1107 136.025 31.7159 136.025H85.628C89.2333 136.025 92.1566 133.102 92.1566 129.497V115.249C92.1539 110.968 89.9201 106.998 86.2625 104.775Z" fill="#FFCB05"/>
<path d="M71.6294 106.452C70.83 109.494 69.1283 112.234 66.8417 114.164C64.4769 116.159 61.6504 117.213 58.6719 117.213C55.6934 117.213 52.867 116.159 50.502 114.164C48.213 112.234 46.514 109.497 45.7144 106.452C45.523 105.721 45.9005 104.958 46.5612 104.746C47.222 104.533 47.9115 104.953 48.1029 105.684C49.4611 110.849 53.8083 114.46 58.6719 114.46C63.5355 114.46 67.8829 110.852 69.2409 105.684C69.4322 104.953 70.1247 104.533 70.7825 104.746C71.4434 104.955 71.8234 105.721 71.6294 106.452Z" fill="#BE922D"/>
<path d="M46.7474 107.594C48.0985 107.594 49.1937 106.498 49.1937 105.147C49.1937 103.796 48.0985 102.701 46.7474 102.701C45.3964 102.701 44.3011 103.796 44.3011 105.147C44.3011 106.498 45.3964 107.594 46.7474 107.594Z" fill="#BE922D"/>
<path d="M70.4417 107.594C71.7929 107.594 72.8879 106.498 72.8879 105.147C72.8879 103.796 71.7929 102.701 70.4417 102.701C69.0906 102.701 67.9955 103.796 67.9955 105.147C67.9955 106.498 69.0906 107.594 70.4417 107.594Z" fill="#BE922D"/>
<path d="M71.6294 105.81C70.83 108.558 69.1283 111.03 66.8417 112.774C64.4769 114.575 61.6504 115.527 58.6719 115.527C55.6934 115.527 52.867 114.575 50.502 112.774C48.213 111.03 46.514 108.558 45.7144 105.81C45.523 105.149 45.9005 104.46 46.5612 104.268C47.222 104.077 47.9115 104.455 48.1029 105.115C49.4611 109.782 53.8083 113.041 58.6719 113.041C63.5355 113.041 67.8829 109.782 69.2409 105.115C69.4322 104.455 70.1247 104.077 70.7825 104.268C71.4434 104.46 71.8234 105.152 71.6294 105.81Z" fill="white"/>
<path d="M111.535 110.839V126.89H106.931V110.839H102.626V106.953H115.898V110.839H111.535Z" fill="#0051BA"/>
<path d="M129.587 110.839H122.922V114.696H129.26V118.581H122.922V123.005H129.587V126.89H118.318V106.953H129.587V110.839Z" fill="#0051BA"/>
<path d="M139.032 123.002H147.579V126.888H131.467L141.032 110.836H133.022V106.953H148.565L139.032 123.002Z" fill="#0051BA"/>
<path d="M168.649 111.825C167.154 110.48 165.87 110.391 165.301 110.391C164.674 110.391 163.895 110.48 163.358 111.078C163.059 111.377 162.849 111.825 162.849 112.334C162.849 112.811 162.999 113.17 163.297 113.44C163.774 113.889 164.464 114.067 165.809 114.575L167.304 115.144C168.172 115.472 169.247 115.921 170.023 116.668C171.189 117.774 171.488 119.208 171.488 120.375C171.488 122.439 170.77 124.232 169.724 125.307C167.959 127.161 165.389 127.339 164.076 127.339C162.642 127.339 161.386 127.129 160.13 126.503C159.113 125.994 157.948 125.068 157.201 124.321L159.593 121.033C160.101 121.542 160.909 122.229 161.446 122.557C162.223 123.034 163.03 123.275 163.958 123.275C164.556 123.275 165.392 123.154 166.05 122.588C166.439 122.26 166.769 121.72 166.769 120.973C166.769 120.315 166.499 119.898 166.082 119.539C165.544 119.09 164.317 118.642 163.751 118.432L162.107 117.863C161.181 117.536 160.104 117.116 159.328 116.28C158.282 115.173 158.132 113.768 158.132 112.814C158.132 111.049 158.67 109.554 159.865 108.33C161.271 106.896 162.943 106.508 164.797 106.508C166.171 106.508 168.384 106.746 170.715 108.479L168.649 111.825Z" fill="#0051BA"/>
<path d="M185.896 123.123H178.363L176.839 126.888H172.057L180.099 106.951H184.312L192.173 126.888H187.39L185.896 123.123ZM184.64 119.597L182.188 112.9L179.708 119.597H184.64Z" fill="#0051BA"/>
<path d="M200.45 110.839V126.89H195.846V110.839H191.541V106.953H204.813V110.839H200.45Z" fill="#0051BA"/>
<path d="M108.963 134.045C108.732 134.064 108.373 134.084 108.171 134.084C107.694 134.084 107.408 134.021 107.225 133.877C106.905 133.631 106.876 133.245 106.876 132.988V131.858H107.301V132.931C107.301 133.08 107.301 133.395 107.531 133.563C107.668 133.665 107.899 133.683 108.198 133.683C108.525 133.683 108.782 133.66 108.966 133.644V131.861H109.391V135.684H108.966V134.045H108.963Z" fill="#0051BA"/>
<path d="M112.06 133.776C112.06 132.635 112.948 131.799 114.05 131.799C115.151 131.799 116.04 132.635 116.04 133.776C116.04 134.911 115.156 135.753 114.05 135.753C112.941 135.753 112.06 134.911 112.06 133.776ZM112.495 133.776C112.495 134.654 113.19 135.351 114.05 135.351C114.91 135.351 115.604 134.651 115.604 133.776C115.604 132.897 114.91 132.2 114.05 132.2C113.187 132.197 112.495 132.897 112.495 133.776Z" fill="#0051BA"/>
<path d="M118.709 131.858H119.134V133.413H121.095V131.858H121.52V135.28H121.955V136.483H121.554V135.681H121.095V133.812H119.134V135.681H118.709V131.858Z" fill="#0051BA"/>
<path d="M127.647 131.858H129.545V132.259H128.072V133.448H128.588C129.058 133.448 129.907 133.544 129.907 134.525C129.907 135.254 129.42 135.684 128.669 135.684H127.65V131.858H127.647ZM128.072 135.283H128.565C128.738 135.283 129.052 135.283 129.27 135.07C129.372 134.973 129.472 134.8 129.472 134.525C129.472 134.341 129.425 134.09 129.162 133.945C128.984 133.849 128.756 133.849 128.52 133.849H128.072V135.283Z" fill="#0051BA"/>
<path d="M134.571 134.606H132.943L132.484 135.684H132.015L133.775 131.678L135.489 135.684H135.02L134.571 134.606ZM134.406 134.205L133.764 132.674L133.111 134.205H134.406Z" fill="#0051BA"/>
<path d="M137.886 132.352C138.195 131.893 138.607 131.796 138.982 131.796C139.176 131.796 139.527 131.825 139.789 132.066C139.955 132.215 140.088 132.457 140.088 132.771C140.088 133.162 139.857 133.443 139.561 133.579C140.072 133.694 140.329 134.1 140.329 134.565C140.329 135.039 140.088 135.333 139.855 135.498C139.614 135.663 139.294 135.75 138.984 135.75C138.226 135.75 137.796 135.281 137.602 134.832L138.014 134.649C138.169 135.078 138.541 135.349 139 135.349C139.207 135.349 139.425 135.296 139.585 135.189C139.831 135.016 139.894 134.782 139.894 134.575C139.894 133.875 139.247 133.825 138.874 133.825H138.531V133.424H138.874C139.407 133.424 139.653 133.125 139.653 132.776C139.653 132.612 139.59 132.467 139.498 132.375C139.349 132.221 139.131 132.197 138.982 132.197C138.707 132.197 138.444 132.278 138.214 132.609L137.886 132.352Z" fill="#0051BA"/>
<path d="M144.988 134.606H143.36L142.901 135.684H142.432L144.191 131.678L145.906 135.684H145.437L144.988 134.606ZM144.823 134.205L144.181 132.674L143.528 134.205H144.823Z" fill="#0051BA"/>
<path d="M149.032 131.858C149.414 131.858 149.737 131.903 149.994 132.128C150.274 132.37 150.343 132.708 150.343 132.949C150.343 133.489 150.004 134.021 149.134 134.021H148.761V135.684H148.337V131.861H149.032V131.858ZM148.761 133.62H149.11C149.613 133.62 149.918 133.369 149.918 132.926C149.918 132.317 149.349 132.259 149.076 132.259H148.761V133.62Z" fill="#0051BA"/>
<path d="M152.419 135.123L152.797 135.259L152.217 136.555L151.947 136.444L152.419 135.123Z" fill="#0051BA"/>
<path d="M158.995 131.858H160.893V132.259H159.42V133.448H159.936C160.406 133.448 161.255 133.544 161.255 134.525C161.255 135.254 160.767 135.684 160.017 135.684H158.998V131.858H158.995ZM159.42 135.283H159.913C160.085 135.283 160.4 135.283 160.618 135.07C160.72 134.973 160.82 134.8 160.82 134.525C160.82 134.341 160.772 134.09 160.51 133.945C160.332 133.849 160.104 133.849 159.868 133.849H159.42V135.283Z" fill="#0051BA"/>
<path d="M165.922 134.606H164.294L163.835 135.684H163.363L165.122 131.678L166.837 135.684H166.368L165.922 134.606ZM165.754 134.205L165.112 132.674L164.459 134.205H165.754Z" fill="#0051BA"/>
<path d="M171.378 134.606H169.75L169.291 135.684H168.822L170.581 131.678L172.296 135.684H171.827L171.378 134.606ZM171.213 134.205L170.571 132.674L169.918 134.205H171.213Z" fill="#0051BA"/>
<path d="M175.421 131.858C175.804 131.858 176.127 131.903 176.383 132.128C176.664 132.37 176.732 132.708 176.732 132.949C176.732 133.489 176.394 134.021 175.523 134.021H175.151V135.684H174.727V131.861H175.421V131.858ZM175.151 133.62H175.5C176.003 133.62 176.307 133.369 176.307 132.926C176.307 132.317 175.738 132.259 175.466 132.259H175.151V133.62Z" fill="#0051BA"/>
<path d="M179.234 131.858H179.658V133.448H180.175C180.644 133.448 181.494 133.544 181.494 134.525C181.494 135.254 181.006 135.684 180.256 135.684H179.236V131.858H179.234ZM179.658 135.283H180.151C180.324 135.283 180.639 135.283 180.857 135.07C180.959 134.973 181.059 134.8 181.059 134.525C181.059 134.341 181.014 134.09 180.749 133.945C180.571 133.849 180.343 133.849 180.107 133.849H179.658V135.283ZM182.317 131.858V135.681H181.892V131.858H182.317Z" fill="#0051BA"/>
<path d="M188.423 131.858H190.322V132.259H188.848V133.448H189.365C189.834 133.448 190.684 133.544 190.684 134.525C190.684 135.254 190.196 135.684 189.446 135.684H188.426V131.858H188.423ZM188.848 135.283H189.341C189.514 135.283 189.829 135.283 190.047 135.07C190.149 134.973 190.248 134.8 190.248 134.525C190.248 134.341 190.204 134.09 189.939 133.945C189.761 133.849 189.532 133.849 189.296 133.849H188.848V135.283Z" fill="#0051BA"/>
<path d="M195.348 134.606H193.719L193.261 135.684H192.792L194.551 131.678L196.265 135.684H195.796L195.348 134.606ZM195.183 134.205L194.54 132.674L193.887 134.205H195.183Z" fill="#0051BA"/>
<path d="M199.391 131.858C199.774 131.858 200.096 131.903 200.353 132.128C200.634 132.37 200.702 132.708 200.702 132.949C200.702 133.489 200.364 134.021 199.493 134.021H199.121V135.684H198.696V131.861H199.391V131.858ZM199.121 133.62H199.47C199.973 133.62 200.277 133.369 200.277 132.926C200.277 132.317 199.708 132.259 199.436 132.259H199.121V133.62Z" fill="#0051BA"/>
</g>
<defs>
<clipPath id="clip0_1892_8493">
<rect width="180" height="46.6946" fill="white" transform="translate(25 92)"/>
</clipPath>
</defs>
</svg>
