<svg width="120" height="120" viewBox="0 0 120 120" fill="none" xmlns="http://www.w3.org/2000/svg">
<path d="M56.1797 0.374756C49.8516 1.52319 44.4141 5.13257 40.7578 10.6404C39.1406 13.1013 38.0859 15.6794 37.4531 18.7498C37.0547 20.7419 37.0078 21.7029 37.0781 27.7732C37.1719 33.9373 37.2422 34.7341 37.7109 36.4451C40.8281 47.5544 51.2578 54.7966 62.4141 53.6482C70.9922 52.7576 78.1875 47.4373 81.6563 39.3748C83.0156 36.2107 83.25 34.6404 83.3672 28.1013C83.4609 23.2732 83.4141 21.6091 83.1094 19.6873C81.7734 11.2029 75.7266 4.00757 67.6172 1.24194C64.0547 0.0231934 59.8594 -0.281494 56.1797 0.374756Z" fill="#3577A9"/>
<path d="M55.125 58.8516C53.7422 59.5312 52.9688 60.9141 52.9688 62.625C52.9688 63.7266 53.1094 64.125 53.9062 65.3438C56.1562 68.8359 56.1328 68.6719 55.5234 75.5859L55.0078 81.4453L56.4844 85.5C58.1953 90.1406 58.5938 90.7031 60.1406 90.7031C61.8047 90.7031 62.1562 90.1875 63.8906 85.4766L65.4141 81.3047L64.8281 76.2656C64.5 73.4766 64.2188 70.875 64.2188 70.4766C64.2188 69.2109 64.6641 68.0391 65.7656 66.3984C67.2656 64.1484 67.5 63.6562 67.5 62.6016C67.5 61.4062 67.1484 60.5156 66.375 59.6953C65.2031 58.4531 64.8281 58.3594 60.3047 58.3594C56.5312 58.3594 56.0391 58.4062 55.125 58.8516Z" fill="#133249"/>
<path d="M35.3906 63.9609C29.7891 66.1172 24.6797 68.0625 24.0703 68.2969C22.3828 68.9297 20.7891 70.3125 20.0625 71.7422L19.4531 72.9844V96.0234C19.4531 118.758 19.4531 119.062 19.9219 119.531C20.3906 120 20.6953 120 59.8594 120C98.3672 120 99.3281 120 99.8672 119.555L100.43 119.109V96.2812V73.4766L99.9141 72.5391C99.0469 70.9219 97.7578 69.9141 95.1328 68.7656C93.7969 68.1797 88.5469 65.9531 83.4844 63.8203C75.3047 60.3516 74.2266 59.9531 73.7109 60.1875C73.3828 60.3516 73.0078 60.7031 72.8906 60.9844C72.7734 61.2891 69.9844 72.4219 66.7031 85.7109C63.3984 99.0234 60.6094 110.367 60.4453 110.906C60.1875 111.891 60 111.188 54.0234 87.4219C50.625 73.9453 47.7422 62.4844 47.6016 61.9219C47.2969 60.7969 46.6172 60 46.0078 60.0234C45.7734 60.0234 40.9922 61.8047 35.3906 63.9609Z" fill="#295D85"/>
</svg>
